<?xml version="1.0" encoding="UTF-8"?>
<!DOCTYPE svg PUBLIC "-//W3C//DTD SVG 1.1//EN" "http://www.w3.org/Graphics/SVG/1.1/DTD/svg11.dtd">
<svg version="1.1" xmlns="http://www.w3.org/2000/svg" xmlns:xlink="http://www.w3.org/1999/xlink" x="0" y="0" width="655.8" height="679.2" viewBox="0, 0, 655.8, 679.2">
  <defs>
    <clipPath id="Clip_1">
      <path d="M-0,679.2 L655.644,679.2 L655.644,0.036 L-0,0.036 z"/>
    </clipPath>
  </defs>
  <g id="Layer_1">
    <g clip-path="url(#Clip_1)">
      <path d="M478.433,679.05 C476.653,679.038 474.872,679.032 473.092,679.02 C472.817,677.628 473.891,676.83 474.55,675.906 C481.016,666.828 486.944,657.408 492.411,647.7 C505.66,624.978 517.265,601.404 528.671,577.723 C536.347,561.788 543.699,545.708 550.915,529.564 C556.174,517.796 561.292,505.967 566.439,494.151 C567.544,491.614 567.147,490.05 564.881,488.325 C556.374,481.85 548.039,475.149 539.637,468.537 C535.916,465.609 535.793,464.648 538.257,460.508 C543.419,451.834 548.638,443.193 553.828,434.534 C555.898,431.081 555.858,431.14 552.457,428.756 C546.973,424.915 541.353,421.271 535.892,417.398 C527.125,411.557 518.588,405.364 509.152,399.39 C510.524,403.85 511.45,407.711 512.206,411.618 C513.725,423.295 512.694,434.936 511.849,446.585 C509.923,473.114 506.054,499.388 501.526,525.573 C497.201,550.585 491.912,575.404 486.05,600.096 C482.265,616.038 478.258,631.92 473.771,647.682 C471.359,656.13 469.016,664.596 466.552,673.032 C465.943,675.114 465.668,677.37 464.018,679.026 C460.836,679.026 457.654,679.032 454.472,679.032 C453.392,678.306 453.137,677.124 452.785,675.984 C449.944,666.786 447.473,657.486 444.766,648.246 C435.435,614.706 427.57,580.824 420.878,546.665 C415.898,521.243 411.817,495.67 408.794,469.949 C407.491,458.855 406.586,447.699 406.049,436.513 C405.652,428.21 405.204,419.956 406.341,411.698 C407.081,407.798 407.889,403.908 409.091,399.885 C399.1,405.173 389.933,411.68 380.388,417.565 C374.35,421.482 368.275,425.341 362.266,429.302 C359.378,431.205 359.36,431.312 361.117,434.233 C366.478,443.143 371.83,452.059 377.159,460.988 C379.456,464.836 379.361,465.503 375.922,468.206 C367.513,474.818 359.152,481.49 350.701,488.048 C347.401,490.609 347.399,490.625 349.059,494.391 C358.369,515.519 368.027,536.488 377.851,557.384 C386.53,575.845 395.561,594.13 404.808,612.306 C410.789,624.066 416.95,635.736 423.635,647.118 C429.066,657.024 435.05,666.594 441.412,675.936 C442.029,676.836 443.264,677.634 442.424,679.05 C440.642,679.038 438.859,679.026 437.077,679.014 C435.847,678.252 435.167,677.016 434.377,675.87 C427.701,666.18 421.897,655.962 416.079,645.75 C404.057,624.414 393.203,602.466 382.442,580.481 C372.518,560.205 362.971,539.746 353.728,519.146 C350.006,510.852 346.364,502.523 342.581,494.257 C340.373,489.434 340.564,488.674 344.617,485.429 C352.807,478.872 361.085,472.426 369.354,465.968 C371.422,464.354 371.759,463.091 370.324,460.784 C364.942,452.13 359.798,443.327 354.536,434.597 C351.583,429.698 351.757,428.958 356.663,425.842 C358.348,424.771 360.128,423.846 361.659,422.542 C370.305,417.337 378.644,411.647 387.17,406.201 C373.359,410.135 359.651,414.359 346.183,419.365 C336.422,422.993 326.957,427.239 317.786,432.162 C305.482,438.767 296.215,448.921 286.885,458.92 C277.757,468.7 269.146,478.952 260.536,489.196 C249.48,502.349 238.562,515.614 227.823,529.027 C225.769,531.593 227.456,533.476 228.451,535.58 C233.038,543.546 237.192,551.773 242.83,559.097 C244.119,560.773 244.454,562.574 242.828,564.244 C241.45,565.659 239.357,565.438 237.483,563.717 C235.243,561.661 233.746,559.028 232.184,556.479 C221.512,539.067 212.529,520.765 203.701,502.376 C198.986,492.554 194.358,482.695 189.932,472.739 C189.133,470.941 187.946,469.577 185.461,468.752 C187.018,471.426 188.236,473.704 189.707,475.793 C194.353,482.391 194.258,489.498 191.076,496.326 C182.808,514.065 168.133,523.698 149.45,527.858 C147.007,528.402 145.175,527.396 143.808,525.378 C142.743,523.805 141.712,522.209 140.635,520.645 C139.622,519.175 138.732,517.614 137.305,515.903 C136.04,519.181 136.45,521.938 137.793,524.698 C142.08,533.51 146.705,542.144 151.462,550.709 C161.459,568.714 171.698,586.579 182.63,604.038 C188.086,612.75 194.905,620.01 204.647,624.096 C212.58,627.426 220.081,626.502 227.311,622.182 C239.969,614.622 251.555,605.574 262.832,596.145 C278.549,583.007 293.904,569.454 308.44,554.996 C310.012,553.433 310.63,551.969 310.358,549.736 C308.509,534.564 306.416,519.424 304.579,504.251 C304.135,500.582 303.745,496.905 303.172,493.252 C303.063,492.559 303.064,491.855 303.137,491.157 C303.321,489.391 304.131,488.08 305.984,487.786 C307.967,487.471 309.252,488.471 309.883,490.295 C310.807,492.969 310.821,495.804 311.179,498.57 C313.521,516.701 315.784,534.842 318.076,552.979 C320.781,574.385 323.635,595.772 326.299,617.19 C329.123,636.456 331.427,655.788 334.277,675.048 C334.478,676.404 334.942,677.82 333.822,679.044 C328.28,679.296 328.173,679.314 327.456,674.028 C324.528,652.458 321.643,630.882 318.799,609.3 C316.725,593.557 314.742,577.804 312.706,562.058 C312.658,561.691 312.466,561.344 312.239,560.699 C306.008,566.48 300.016,572.158 293.896,577.694 C275.586,594.256 257.015,610.5 236.386,624.198 C229.859,628.53 223.223,632.412 214.967,632.472 C202.478,632.562 193.099,626.448 184.964,617.832 C177.556,609.99 172.678,600.39 167.224,591.23 C155.186,571.007 143.696,550.476 132.769,529.623 C129.411,523.216 129.206,517.09 131.956,510.692 C132.817,508.69 132.991,507.115 131.661,505.194 C129.435,501.979 130.586,498.587 132.105,495.523 C133.318,493.076 133.319,491.083 131.445,489.111 C131.377,489.04 131.327,488.95 131.279,488.862 C127.937,482.733 123.332,478.751 116.379,476.239 C100.841,470.624 87.745,460.592 74.837,450.484 C67.991,445.122 61.352,439.505 54.967,433.6 C47.994,427.152 39.272,423.412 31.426,418.317 C23.227,412.992 14.831,407.969 6.554,402.761 C5.042,401.811 3.55,400.747 2.294,399.491 C-1.264,395.932 -0.62,391.797 3.787,389.441 C4.987,388.8 6.299,388.37 7.646,387.807 C7.397,387.364 7.214,387.017 7.012,386.682 C2.461,379.134 5.795,372.549 14.518,371.859 C15.561,371.776 16.54,372.016 17.141,370.545 C19.771,364.117 25.246,362.542 31.517,362.522 C32.213,362.52 32.927,362.578 33.602,362.737 C36.148,363.337 37.798,363.075 39.052,360.108 C40.628,356.377 44.36,355.254 48.261,355.051 C56.384,354.627 63.814,357.224 71.063,360.427 C88.502,368.132 103.729,379.183 117.986,391.679 C118.417,392.057 118.864,392.417 119.637,393.065 C118.712,386.954 118.679,381.245 120.21,375.628 C120.574,374.293 121.069,372.95 121.751,371.753 C124.432,367.05 129.241,365.911 133.722,368.95 C138.208,371.993 141.322,376.302 143.998,380.893 C149.631,390.556 155.899,399.807 161.912,409.225 C171.189,423.755 174.666,439.624 170.3,456.718 C170.201,457.104 170.088,457.489 170.029,457.882 C170.002,458.06 170.089,458.255 170.14,458.524 C173.893,458.483 177.739,458.244 180.267,461.932 C180.827,462.75 181.759,462.215 182.499,462.215 C190.495,462.217 193.234,464.069 196.476,471.401 C204.216,488.907 212.529,506.142 221.212,523.199 C221.522,523.81 221.897,524.389 222.429,525.305 C226.883,519.828 231.159,514.504 235.505,509.237 C253.567,487.354 271.599,465.453 291.175,444.871 C302.78,432.668 316.89,424.491 332.197,418.033 C352.538,409.45 373.694,403.313 394.821,397.08 C400.175,395.5 405.442,393.569 410.864,392.288 C415.31,391.237 417.424,387.752 420.392,384.778 C409.254,379.814 399.044,373.667 389.377,366.554 C371.918,353.706 360.674,336.315 352.425,316.67 C349.681,310.135 347.402,303.439 345.34,296.665 C345.046,295.7 345.028,294.728 343.497,294.955 C335.675,296.116 329.413,292.664 324.691,287.101 C310.822,270.761 302.442,252.058 303.362,230.222 C303.84,218.863 308.281,209.235 319.415,204.166 C320.985,203.452 320.308,202.699 320.021,201.872 C313.67,183.623 310.735,164.767 309.752,145.531 C308.926,129.38 310.214,113.606 317.297,98.755 C325.057,82.481 336.54,69.095 350.362,57.823 C384.854,29.696 423.953,11.062 467.701,2.584 C482.675,-0.317 497.804,-1.406 512.795,2.93 C523.347,5.981 532.433,11.272 538.829,20.476 C543.166,26.715 544.968,33.626 543.77,41.195 C543.577,42.417 543.295,43.049 545.066,43.199 C571.196,45.412 589.142,59.039 599.836,82.696 C609.456,103.978 613.08,126.264 611.376,149.527 C610.044,167.731 606.954,185.551 600.81,202.783 C600.462,203.76 600.126,204.426 601.404,205.183 C611.952,211.421 615.498,221.532 615.438,232.91 C615.324,253.531 607.344,271.362 594.185,286.891 C589.53,292.383 583.439,295.9 575.76,295.035 C573.872,294.823 573.931,296.02 573.614,297.136 C569.892,310.222 565.012,322.819 558.321,334.716 C546.666,355.438 528.836,369.305 508.315,380.239 C505.591,381.69 502.786,382.998 499.971,384.267 C498.79,384.8 498.454,385.001 499.472,386.263 C501.919,389.296 504.799,391.282 508.583,392.533 C532.325,400.383 556.288,407.582 579.726,416.338 C589.436,419.966 599.12,423.67 608.742,427.526 C623.646,433.498 633.288,444.137 638.16,459.606 C643.338,476.059 646.572,492.854 648.816,509.882 C652.788,540.117 654.348,570.525 655.158,600.984 C655.83,626.268 655.698,651.546 655.392,676.824 C655.368,678.648 654.96,679.398 653.076,679.152 C651.894,678.996 650.682,679.056 649.488,679.02 C648.174,677.586 648.432,675.828 648.672,674.172 C649.086,671.286 649.098,668.4 649.098,665.502 C649.092,650.91 649.2,636.318 649.068,621.726 C648.93,606.348 648.48,590.973 647.76,575.617 C646.608,550.873 644.484,526.196 641.226,501.634 C640.866,500.683 640.89,499.645 640.548,498.69 C638.46,484.523 635.436,470.587 630.15,457.219 C628.974,454.24 627.48,451.408 625.944,448.603 C623.148,443.487 618.738,440.199 613.608,437.651 C600.696,431.239 587.313,425.978 573.79,421.047 C559.262,415.751 544.484,411.198 529.433,406.021 C537.283,411.061 544.421,416.332 551.874,421.141 C554.268,422.947 556.746,424.632 559.245,426.292 C563.103,428.854 563.425,430.133 560.947,434.156 C555.547,442.922 550.293,451.776 544.999,460.605 C543.108,463.758 543.139,463.749 546.1,466.124 C554.442,472.815 562.974,479.267 571.258,486.031 C574.246,488.47 574.594,489.794 573.106,493.279 C562.712,517.636 551.96,541.829 540.792,565.846 C531.77,585.247 522.092,604.32 512.483,623.424 C508.58,631.182 504.339,638.778 500.029,646.332 C494.201,656.304 488.318,666.246 481.777,675.78 C480.873,677.094 480.068,678.492 478.433,679.05" fill="#2F201B"/>
    </g>
    <path d="M641.748,500.876 C643.188,506.065 643.356,511.445 643.95,516.742 C645.348,529.203 646.398,541.703 647.532,554.192 C647.838,557.565 647.766,560.955 648.096,564.344 C648.612,569.597 648.594,574.901 648.834,580.181 C650.154,609.636 650.178,639.102 649.956,668.574 C649.926,672.054 649.65,675.54 649.488,679.02 C629.46,679.014 609.432,679.014 589.403,679.008 C588.345,677.808 588.572,676.38 588.767,675.006 C591.515,655.614 593.803,636.156 596.133,616.71 C598.285,598.753 600.408,580.792 602.364,562.811 C602.592,560.729 603.222,558.936 604.644,557.413 C618.618,542.458 626.388,524.306 631.608,504.867 C632.178,502.751 633.198,500.586 632.268,498.048 C630.738,499.07 630.804,500.587 630.486,501.857 C626.796,516.492 621.444,530.434 613.356,543.244 C611.49,546.205 609.45,549.051 607.08,551.64 C606.42,552.361 605.736,553.477 604.68,553.074 C603.42,552.59 603.768,551.23 603.876,550.163 C604.794,541.318 605.874,532.49 606.87,523.654 C608.994,504.79 611.064,485.92 613.164,467.053 C613.65,462.683 614.196,458.32 614.592,453.941 C614.628,453.543 614.718,453.149 614.736,452.75 C614.784,451.513 614.802,450.197 613.206,449.949 C611.604,449.699 611.142,450.947 610.938,452.165 C610.608,454.134 610.434,456.13 610.212,458.114 C607.086,486.619 603.918,515.119 600.672,543.611 C597.838,568.528 594.962,593.44 592.028,618.348 C591.875,619.638 591.662,620.922 591.007,622.08 C588.769,624.006 585.958,624.894 583.326,626.004 C562.828,634.68 541.631,641.004 519.667,644.748 C514.252,645.672 508.809,646.398 503.389,647.28 C502.018,647.508 500.179,648.378 499.426,646.116 C510.937,625.32 521.681,604.128 531.983,582.721 C545.305,555.038 557.955,527.046 569.9,498.739 C570.831,496.534 571.819,494.352 572.786,492.163 C573.711,490.072 573.394,488.55 571.404,487.019 C562.403,480.092 553.572,472.944 544.584,466 C542.494,464.385 542.422,463.204 543.822,460.963 C549.689,451.579 555.269,442.016 561.04,432.571 C562.373,430.388 562.01,428.999 559.909,427.603 C557.097,425.736 554.121,424.076 551.663,421.708 C552.904,420.729 554.191,421.379 555.375,421.736 C571.354,426.55 587.13,431.879 602.418,438.671 C616.35,444.861 625.092,455.53 630.846,469.207 C634.884,478.792 638.67,488.445 640.818,498.659 C641.298,499.324 640.65,500.467 641.748,500.876" fill="#6C6969"/>
    <path d="M333.822,679.044 C332.927,672.45 332.024,665.856 331.141,659.262 C330.033,650.994 328.942,642.72 327.845,634.452 C327.062,628.548 326.283,622.638 325.502,616.734 C345.049,628.674 366.713,635.004 388.688,640.458 C397.892,642.744 407.25,644.286 416.654,645.522 C423.159,656.874 430.034,667.998 437.077,679.014 C433.588,679.056 430.099,679.122 426.61,679.122 C396.776,679.134 366.942,679.128 337.108,679.128 C336.013,679.128 334.918,679.068 333.822,679.044" fill="#5D5B5A"/>
    <path d="M499.426,646.116 C500.198,647.052 501.295,646.83 502.217,646.692 C517.312,644.394 532.368,641.934 547.101,637.77 C561.49,633.708 575.537,628.74 589.151,622.56 C589.6,622.356 590.095,622.254 590.569,622.11 C591.64,623.058 591.349,624.276 591.202,625.452 C589.119,642.036 587.218,658.644 584.89,675.192 C584.696,676.572 584.549,677.976 583.472,679.032 C573.199,679.068 562.925,679.128 552.651,679.122 C527.912,679.116 503.172,679.074 478.433,679.05 C485.023,670.284 490.571,660.846 496.195,651.456 C497.264,649.668 498.349,647.892 499.426,646.116" fill="#5D5B5A"/>
    <path d="M583.472,679.032 C584.806,669.12 586.184,659.208 587.458,649.284 C588.391,642.006 589.246,634.716 589.996,627.42 C590.178,625.65 590.962,623.94 590.57,622.11 C592.409,606.498 594.271,590.885 596.083,575.268 C597.907,559.553 599.672,543.83 601.482,528.113 C603.234,512.891 605.052,497.676 606.762,482.449 C607.872,472.559 608.838,462.652 609.864,452.752 C609.996,451.454 610.104,450.087 611.136,449.183 C612.03,448.396 613.242,448.514 614.268,448.944 C615.678,449.535 615.96,450.806 615.798,452.203 C614.466,463.666 613.098,475.124 611.802,486.592 C610.896,494.603 610.134,502.63 609.234,510.642 C608.148,520.331 606.972,530.011 605.868,539.698 C605.376,543.996 604.962,548.303 604.44,553.279 C609.24,548.211 612.768,543.067 615.78,537.586 C622.506,525.352 627.312,512.38 630.228,498.726 C630.534,497.299 631.116,496.486 632.598,496.723 C634.452,497.017 633.972,498.523 633.75,499.571 C631.722,508.952 628.776,518.045 625.062,526.897 C620.112,538.702 613.446,549.379 604.596,558.687 C602.178,561.224 603.198,564.812 602.772,567.885 C601.176,579.311 599.953,590.79 598.62,602.25 C597.54,611.544 596.545,620.844 595.433,630.132 C594.38,638.928 593.14,647.694 592.139,656.49 C591.284,664.002 589.816,671.442 589.403,679.008 C587.426,679.014 585.449,679.026 583.472,679.032" fill="#2F201B"/>
    <path d="M442.424,679.05 C439,673.734 435.475,668.478 432.182,663.084 C429.038,657.93 425.609,652.932 423.174,647.37 C423.827,646.596 424.739,646.482 425.629,646.596 C432.235,647.436 438.934,647.286 445.505,648.474 C448.494,658.662 451.483,668.85 454.472,679.032 C450.457,679.038 446.44,679.044 442.424,679.05" fill="#5D5B5A"/>
    <path d="M464.018,679.026 C467.02,668.646 470.021,658.272 473.023,647.898 C477.373,648.114 481.686,647.568 486.012,647.274 C488.327,647.118 490.723,646.386 492.879,647.946 C490.436,653.514 486.93,658.47 483.724,663.576 C480.404,668.868 476.654,673.884 473.092,679.02 C470.067,679.02 467.042,679.026 464.018,679.026" fill="#5D5B5A"/>
    <path d="M421.555,85.309 C409.656,94.485 398.842,104.224 389.79,115.785 C386.336,120.196 383.215,124.826 380.601,129.791 C379.74,131.426 378.761,133.086 380.54,134.659 C382.336,136.245 383.859,134.993 385.358,133.961 C406.948,119.089 429.638,106.172 453.677,95.679 C470.268,88.437 487.304,82.56 505.211,79.503 C508.753,78.899 512.343,78.587 515.889,78.005 C519.151,77.471 521.822,78.377 524.491,80.334 C540.128,91.794 550.934,107.043 559.402,124.196 C566.871,139.325 570.806,155.364 572.588,172.096 C574.834,193.169 576.792,214.246 576.543,235.46 C576.244,260.912 571.948,285.664 563.593,309.749 C553.124,339.93 533.212,361.534 504.782,375.638 C490.99,382.48 476.779,387.776 461.161,388.304 C451.331,388.636 441.895,386.627 432.716,383.37 C412.288,376.12 393.899,365.445 379.067,349.464 C366.548,335.977 359.013,319.536 353.157,302.302 C344.609,277.142 341.516,251.216 342.182,224.715 C342.784,200.804 345.175,177.084 348.805,153.466 C348.992,152.242 349.362,151.166 350,150.128 C366.937,122.537 388.974,100.402 418.393,86.157 C419.108,85.811 419.833,85.48 420.568,85.18 C420.721,85.118 420.942,85.221 421.555,85.309" fill="#FCE3CD"/>
    <path d="M416.654,645.522 C414.339,647.166 411.938,645.702 409.76,645.366 C388.382,642.06 367.58,636.492 347.452,628.548 C341.529,626.208 335.782,623.418 329.98,620.784 C328.085,619.92 326.261,618.894 325.502,616.734 C323.521,601.842 321.486,586.96 319.575,572.06 C317.854,558.641 316.279,545.203 314.621,531.775 C313.011,518.74 311.381,505.708 309.745,492.676 C309.659,491.987 309.418,491.319 309.283,490.634 C308.961,489.001 307.97,488.194 306.322,488.328 C304.456,488.48 303.679,489.679 303.852,491.411 C304.258,495.47 304.73,499.525 305.24,503.573 C306.556,514.036 307.91,524.494 309.244,534.955 C309.936,540.383 310.567,545.819 311.345,551.236 C311.514,552.416 311.513,553.175 310.553,554.113 C290.254,573.929 269.131,592.802 246.581,610.038 C240.394,614.766 233.975,619.182 227.28,623.172 C217.473,629.01 206.113,627.804 195.979,620.172 C188.039,614.196 182.786,606.126 177.798,597.781 C163.45,573.779 149.348,549.641 136.852,524.603 C135.127,521.147 135.424,517.796 137.005,513.834 C139.426,517.451 141.719,520.562 143.665,523.877 C145.385,526.809 147.379,527.698 150.816,526.841 C168.184,522.511 181.817,513.282 189.941,497.035 C193.42,490.078 193.851,482.888 188.939,476.075 C187.199,473.662 185.836,470.976 184.291,468.399 C187.143,467.801 189.166,468.959 190.457,471.91 C198.627,490.584 207.483,508.933 216.758,527.079 C222.62,538.547 228.548,549.992 235.891,560.619 C236.624,561.68 237.49,562.662 238.382,563.597 C239.594,564.867 241.065,565.054 242.38,563.888 C243.712,562.708 243.609,561.253 242.515,559.888 C236.737,552.675 232.647,544.421 228.07,536.468 C227.921,536.21 227.83,535.921 227.712,535.646 C229.567,532.165 232.437,529.473 234.972,526.547 C245.497,514.396 256.004,502.227 266.635,490.168 C275.417,480.208 284.177,470.227 293.111,460.399 C296.399,456.781 299.877,453.336 303.005,449.557 C308.518,442.895 316.117,439.217 323.749,435.656 C334.373,430.698 345.5,427.086 356.629,423.493 C358.348,422.939 360.109,421.789 362.047,422.931 C360.11,425.172 357.278,426.125 354.961,427.828 C353.21,429.115 352.745,430.225 354.008,432.285 C359.956,441.984 365.68,451.819 371.632,461.515 C372.853,463.504 372.61,464.377 370.763,465.794 C361.747,472.716 352.946,479.917 343.93,486.836 C341.59,488.632 341.519,490.268 342.627,492.699 C347.967,504.413 353.122,516.213 358.481,527.918 C372.578,558.709 387.208,589.244 402.713,619.356 C407.237,628.14 412,636.804 416.654,645.522" fill="#6C6969"/>
    <path d="M535.384,26.309 C538.924,31.659 539.305,37.36 537.272,43.327 C535.677,48.014 536.459,49.102 541.454,49.134 C542.203,53.02 545.075,54.304 548.478,55.459 C569.021,62.435 584.831,75.577 597.077,93.265 C597.543,93.937 597.82,94.672 598.11,95.412 C598.672,96.349 599.259,97.276 599.614,98.321 C602.328,105.395 603.786,112.802 604.962,120.229 C606.084,127.307 606.57,134.487 606.216,141.669 C605.238,161.821 602.328,181.628 595.442,200.71 C594.997,201.946 594.478,202.782 592.945,202.754 C588.762,202.68 585.22,204.336 582.034,207.238 C581.352,206.13 581.063,205.05 581.053,203.86 C580.954,192.404 579.017,181.11 578.014,169.733 C576.357,150.934 570.824,133.309 562.018,116.647 C554.813,103.016 545.636,90.924 534.167,80.627 C530.764,77.572 526.958,74.986 523.019,72.63 C522.037,72.043 520.985,71.861 519.854,71.957 C503.109,73.37 486.877,77.099 471.053,82.699 C454.175,88.673 438.037,96.251 422.286,104.738 C412.454,110.036 402.855,115.708 392.935,122.04 C393.88,119.089 395.765,117.469 397.264,115.691 C406.829,104.346 418.096,94.874 430.071,86.191 C434.11,83.263 438.224,80.464 442.489,77.878 C443.854,77.05 445.449,76.022 444.599,74.111 C443.795,72.304 442.409,71.771 440.182,72.334 C420.919,77.197 403.768,86.161 388.1,98.27 C380.324,104.281 373.265,111.028 366.609,118.178 C358.724,126.647 351.977,136.036 345.796,145.826 C342.628,150.842 342.578,156.635 341.723,162.177 C340.485,170.212 339.655,178.313 338.808,186.402 C338.218,192.034 337.898,197.695 337.44,203.341 C337.348,204.486 337.929,205.961 336.6,206.61 C335.482,207.155 334.96,205.745 334.138,205.273 C331.952,204.019 329.633,203.162 327.168,202.678 C326.008,201.891 326.322,200.458 325.738,199.416 C322.658,189.646 321.476,179.554 320.348,169.421 C319.738,163.948 319.578,158.447 319.432,152.998 C319.004,137.077 321.99,121.816 330.133,107.832 C340.805,89.503 355.93,75.422 372.811,63.034 C386.297,53.137 400.699,44.711 415.702,37.364 C437.696,26.591 460.55,18.285 484.855,14.45 C494.952,12.857 505.078,11.944 515.209,14.306 C521.829,15.851 527.902,18.475 532.91,23.215 C533.731,24.247 534.674,25.185 535.384,26.309" fill="#5A3229"/>
    <path d="M445.505,648.474 C444.625,649.482 443.495,649.104 442.429,649.014 C436.01,648.474 429.593,647.922 423.175,647.37 C420.178,643.71 418.334,639.36 416.121,635.262 C399.275,604.044 383.702,572.191 368.927,539.947 C361.734,524.248 354.676,508.486 347.45,492.802 C346.624,491.01 346.756,490.192 348.374,488.947 C357.7,481.772 366.873,474.399 376.163,467.177 C378.094,465.677 378.487,464.424 377.116,462.194 C371.104,452.416 365.306,442.508 359.342,432.7 C358.528,431.362 358.553,430.772 359.926,429.903 C366.664,425.636 373.33,421.256 380.021,416.917 C387.395,414.608 394.949,413.01 402.461,411.248 C403.97,410.894 405.503,410.185 407.092,411 C406.59,416.77 406.196,422.549 406.47,428.342 C407.054,440.678 407.978,452.983 409.266,465.273 C410.282,474.976 411.681,484.616 412.967,494.277 C414.676,507.104 416.833,519.857 419.134,532.585 C424.769,563.756 431.705,594.646 439.499,625.344 C441.241,632.202 443.174,639.006 445,645.846 C445.23,646.704 445.34,647.598 445.505,648.474" fill="#6C6969"/>
    <path d="M492.879,647.946 C487.278,647.856 481.727,648.456 476.169,649.05 C475.075,649.164 473.483,649.848 473.024,647.898 C476.111,635.952 479.289,624.024 482.266,612.054 C488.219,588.109 493.536,564.02 498.086,539.776 C501.019,524.149 503.65,508.453 505.898,492.713 C507.739,479.828 509.329,466.899 510.382,453.904 C511.292,442.678 512.227,431.468 512.023,420.199 C511.967,417.119 511.628,414.044 511.418,410.968 C511.953,410.597 512.562,410.59 513.146,410.723 C520.919,412.501 528.819,413.811 536.228,416.938 C542.744,421.325 549.231,425.756 555.795,430.07 C557.447,431.156 556.208,431.951 555.746,432.728 C550.097,442.249 544.409,451.747 538.709,461.238 C536.537,464.855 536.475,465.076 539.662,467.605 C548.402,474.542 557.158,481.462 566.002,488.266 C567.92,489.742 568.644,490.831 567.542,493.388 C559.453,512.163 551.171,530.85 542.725,549.468 C531.919,573.286 520.51,596.811 508.48,620.028 C503.578,629.49 498.752,639.018 492.879,647.946" fill="#6C6969"/>
    <path d="M166,467.089 C168.515,470.788 170.809,474.406 173.374,477.821 C174.507,479.33 173.658,480.206 172.96,481.219 C168.684,487.417 163.03,492.124 156.684,496.049 C153.885,497.78 151.023,499.396 147.934,500.596 C146.052,501.326 144.953,501.065 143.92,499.09 C140.774,493.077 137.277,487.255 133.385,481.685 C132.725,480.74 132.338,480.215 133.447,479.057 C135.208,477.218 134.155,474.669 131.653,474.505 C122.386,473.898 114.406,469.752 106.592,465.338 C88.213,454.955 72.157,441.464 56.588,427.358 C55.172,426.074 53.666,424.97 52.027,423.993 C37.711,415.459 23.435,406.859 9.436,397.811 C8.215,397.023 6.116,396.358 6.37,394.939 C6.622,393.529 8.851,393.652 10.249,393.215 C11.795,392.732 13.405,392.621 14.983,393.035 C31.073,397.258 45.309,405.06 58.321,415.37 C56.782,416.983 54.066,418.243 56.117,420.805 C58.23,423.443 60.17,421.318 61.988,419.968 C79.06,407.302 98.179,400.393 119.444,399.432 C121.455,399.341 122.737,399.816 123.69,401.728 C124.985,404.326 126.827,406.634 128.932,408.617 C130.341,409.945 130.382,411.113 129.804,412.798 C126.943,421.133 125.684,429.656 127.424,438.416 C128.4,443.33 130.656,447.605 134.279,451.128 C135.767,452.576 137.446,453.17 138.974,451.531 C140.37,450.034 139.771,448.521 138.358,447.1 C132.722,441.431 131.803,434.334 132.508,426.823 C132.977,421.829 134.108,416.951 136.018,412.328 C137.074,409.771 136.522,408.121 134.617,406.274 C127.262,399.142 123.137,390.732 125.064,380.177 C125.541,377.565 125.506,374.17 128.385,373.295 C131.048,372.486 132.574,375.442 134.243,377.19 C137.308,380.397 139.32,384.335 141.564,388.11 C146.512,396.436 152.249,404.284 157.21,412.562 C166.982,428.869 170.687,446.038 160.894,463.922 C159.896,465.745 158.47,467.336 157.22,469.016 C156.091,470.533 156.056,472.007 157.545,473.239 C158.964,474.413 160.4,474.035 161.511,472.734 C163.046,470.935 164.464,469.033 166,467.089" fill="#FCE3CD"/>
    <path d="M458.869,673.542 C457.321,668.244 455.743,662.958 454.232,657.654 C448.653,638.088 443.556,618.39 438.793,598.607 C437.543,593.416 439.187,588.491 439.765,583.498 C441.484,568.637 443.534,553.815 445.452,538.977 C447.383,524.041 449.32,509.104 451.234,494.165 C452.742,482.39 454.217,470.611 455.713,458.834 C455.944,457.014 455.689,455.284 455.115,453.533 C453.034,447.179 451.09,440.78 448.967,434.441 C448.468,432.949 448.461,431.848 449.574,430.654 C452.503,427.51 455.386,424.322 458.197,421.073 C459.076,420.058 459.596,420.009 460.508,421.009 C463.536,424.329 466.641,427.58 469.727,430.847 C470.302,431.456 470.491,431.941 470.228,432.913 C468.311,440.039 466.538,447.205 464.736,454.362 C463.5,459.272 465.038,464.069 465.518,468.879 C466.865,482.378 468.509,495.848 470.047,509.327 C471.573,522.708 473.126,536.085 474.643,549.467 C476.115,562.453 477.089,575.518 479.166,588.406 C480.707,597.968 477.598,606.528 475.46,615.36 C470.837,634.464 465.562,653.394 459.901,672.216 C459.767,672.66 459.87,673.242 458.869,673.542" fill="#03B09F"/>
    <path d="M533.011,23.973 C521.795,14.682 508.732,12.847 494.725,14.095 C479.43,15.457 464.641,19.007 450.189,23.942 C420.588,34.049 393.196,48.46 368.305,67.421 C353.437,78.748 340.274,91.777 330.877,108.181 C324.676,119.004 321.238,130.633 320.558,143.129 C319.516,162.286 321.914,181.08 326.078,199.715 C326.328,200.33 326.053,200.418 325.532,200.258 C320.699,186.341 317.779,172.027 316.356,157.37 C315.631,149.909 315.241,142.451 315.23,134.957 C315.201,115.399 321.782,98.26 333.823,83.008 C348.695,64.172 367.619,50.296 388.232,38.548 C410.719,25.732 434.384,15.75 459.694,9.938 C471.991,7.114 484.416,5.187 497.068,5.989 C509.945,6.805 521.817,10.381 531.131,19.987 C532.094,20.981 532.846,22.178 533.696,23.28 C533.887,23.925 533.596,24.094 533.011,23.973" fill="#A77B74"/>
    <path d="M450.074,452.365 C452.956,458.159 450.611,463.982 449.932,469.705 C447.613,489.232 444.96,508.718 442.45,528.223 C440.182,545.846 437.933,563.472 435.664,581.095 C435.644,581.253 435.452,581.389 435.004,581.976 C433.668,575.884 432.359,570.152 431.159,564.398 C425.086,535.28 420.089,505.98 416.127,476.496 C415.463,471.554 415.6,467.407 419.848,464.036 C421.855,462.443 423.4,460.267 425.155,458.356 C426.078,457.574 427.068,456.924 428.281,456.671 C434.725,455.327 441.07,453.556 447.506,452.178 C448.367,451.994 449.265,451.678 450.074,452.365" fill="#FEFEFE"/>
    <path d="M495.857,458.924 C498.065,461.217 500.215,463.568 502.507,465.774 C503.485,466.715 503.313,467.647 503.188,468.763 C500.098,496.238 495.545,523.478 490.097,550.573 C488.113,560.443 485.959,570.278 483.884,580.129 C483.662,581.179 483.586,582.277 482.763,583.292 C478.875,548.633 475.009,514.127 471.13,479.621 C470.405,473.175 469.657,466.731 468.866,460.293 C468.581,457.972 468.678,455.723 469.549,453.535 C469.944,452.582 470.776,452.539 471.562,452.723 C479.226,454.523 486.968,455.998 494.518,458.268 C494.993,458.411 495.44,458.645 495.857,458.924" fill="#FEFEFE"/>
    <path d="M422.73,390.619 C422.065,393.797 423.584,395.445 424.88,397.147 C432.532,407.188 442.344,414.238 454.739,418.339 C441.486,433.225 428.398,447.926 415.03,462.943 C414.06,460.35 414.22,457.974 414.012,455.693 C412.806,442.479 411.566,429.254 412.469,415.966 C413.012,407.974 415.244,400.483 419.999,393.898 C420.676,392.959 421.48,392.112 422.73,390.619" fill="#FEFEFE"/>
    <path d="M362.047,422.931 C357.865,423.499 354.004,425.174 350.027,426.441 C342.038,428.987 334.288,432.17 326.467,435.177 C313.939,439.994 304.376,448.429 295.782,458.393 C285.676,470.111 275.246,481.547 265.052,493.189 C253.412,506.483 241.882,519.873 230.283,533.203 C229.511,534.089 228.89,535.172 227.712,535.646 C225.236,531.107 225.188,531.068 228.409,527.102 C248.938,501.824 269.686,476.747 291.595,452.624 C305.727,437.063 323.236,427.319 342.478,419.983 C357.211,414.365 372.248,409.689 387.35,405.203 C388.03,405.002 388.681,404.767 390.026,405.355 C380.435,411.282 371.572,417.613 362.047,422.931" fill="#C1C2C2"/>
    <path d="M463.952,418.334 C478.153,413.421 489.458,405.251 497.607,392.681 C502.85,399.072 505.373,406.842 506.005,415.206 C507.145,430.288 505.496,445.277 504.103,461.034 C490.511,446.579 477.352,432.585 463.952,418.334" fill="#FEFEFE"/>
    <path d="M339.248,271.146 C340.472,276.682 341.65,282.227 342.941,287.747 C343.444,289.897 341.777,289.579 340.835,289.556 C337.873,289.486 335.219,288.361 332.815,286.633 C328.693,283.673 325.514,279.853 322.846,275.593 C315.399,263.704 309.944,251.062 308.917,236.885 C308.335,228.83 309.652,221.165 314.762,214.549 C316.06,212.869 317.653,211.522 319.489,210.464 C326.609,206.362 334.653,209.39 336.466,217.388 C337.321,221.161 336.612,225.289 336.612,230.124 C334.24,227.476 332.755,225.272 330.635,223.652 C327.695,221.407 324.478,219.983 320.762,219.864 C318.842,219.803 316.985,220.168 316.915,222.593 C316.849,224.926 318.386,225.644 320.492,225.538 C321.394,225.493 322.299,225.524 323.062,226.127 C323.232,226.684 322.976,227.139 322.588,227.447 C318.645,230.57 318.592,234.933 319.191,239.24 C320.156,246.179 321.753,252.965 325.124,259.249 C327.011,262.765 329.623,265.55 332.479,268.235 C334.43,270.068 337.095,269.95 339.248,271.146" fill="#FCE3CD"/>
    <path d="M595.452,226.157 C596.315,225.518 597.324,225.468 598.323,225.542 C600.396,225.697 601.776,224.675 601.836,222.737 C601.902,220.452 600.126,219.794 598.111,219.857 C592.774,220.023 588.597,222.506 585.177,226.441 C584.326,227.42 583.543,228.457 582.101,230.243 C582.908,223.511 580.077,217.151 585.5,211.922 C589.044,208.506 592.733,207.457 597.205,209.477 C604.704,212.864 607.866,219.39 609.21,226.977 C611.25,238.529 608.352,249.373 603.936,259.911 C600.066,269.16 595.576,278.051 587.986,284.942 C585.265,287.412 582.154,289.155 578.443,289.564 C576.619,289.766 575.459,289.561 576.096,287 C577.394,281.778 578.29,276.455 579.351,271.174 C581.23,269.814 583.703,270.146 585.654,268.701 C589.55,265.816 592.292,262.057 594.263,257.794 C597.505,250.778 599.47,243.411 599.49,235.583 C599.498,232.51 598.868,229.879 596.356,227.899 C595.834,227.487 595.25,226.997 595.452,226.157" fill="#FCE3CD"/>
    <path d="M640.548,499.097 C637.026,487.231 633.042,475.567 627.702,464.34 C621.954,452.245 612.81,444.164 600.75,438.794 C585.215,431.876 569.119,426.612 552.846,421.817 C552.473,421.707 552.058,421.741 551.663,421.708 C543.478,416.266 535.292,410.823 527.107,405.38 C530.341,405.256 533.081,406.482 535.891,407.4 C559.486,415.108 583.097,422.779 605.742,433.076 C608.01,434.108 610.176,435.378 612.492,436.278 C621.09,439.618 626.22,446.162 629.796,454.339 C635.184,466.687 637.998,479.726 640.434,492.879 C640.776,494.735 641.31,496.583 641.058,498.51 C641.388,499.139 641.04,499.177 640.548,499.097" fill="#C1C2C2"/>
    <path d="M76.219,404.566 C72.066,406.637 68.126,408.768 64.42,411.285 C63.419,411.965 62.933,411.844 61.98,411.072 C48.493,400.156 33.527,392.05 16.681,387.599 C13.279,386.701 11.816,383.966 10.718,381.059 C10.189,379.658 11.307,378.615 12.557,378.037 C13.945,377.396 15.442,377.246 16.952,377.538 C38.574,381.713 57.867,391.102 75.677,403.8 C75.826,403.906 75.903,404.111 76.219,404.566" fill="#FCE3CD"/>
    <path d="M182.114,476.513 C187.272,481.939 188.438,487.308 185.003,494.228 C177.85,508.64 165.733,516.905 150.544,521.146 C149.369,521.473 148.728,521.069 148.097,520.093 C145.454,516.005 142.738,511.964 140.151,508.06 C159.501,504.448 173.423,493.971 182.114,476.513" fill="#FEFEFE"/>
    <path d="M111.93,394.04 C107.315,394.917 103.045,395.731 98.774,396.538 C97.687,396.745 97.181,395.89 96.561,395.274 C82.246,381.04 65.099,371.597 46.044,365.363 C45.117,365.06 43.523,365.245 43.547,363.931 C43.571,362.618 44.707,361.642 46.031,361.208 C49.498,360.074 52.97,360.609 56.38,361.42 C68.103,364.21 78.454,370.003 88.499,376.389 C96.672,381.586 104.363,387.439 111.93,394.04" fill="#FCE3CD"/>
    <path d="M91.943,398.078 C85.621,401.708 81.143,401.048 75.692,397.058 C60.28,385.779 43.073,377.863 24.434,373.356 C21.638,372.68 22.634,371.71 23.765,370.57 C25.559,368.762 27.878,368.207 30.354,368.239 C35.498,368.306 40.415,369.602 45.257,371.17 C61.897,376.558 76.865,384.89 89.848,396.686 C90.358,397.15 91.005,397.463 91.943,398.078" fill="#FCE3CD"/>
    <path d="M595.452,226.157 C601.476,229.563 600.834,235.384 600.066,240.696 C598.962,248.351 597.125,255.956 592.534,262.45 C589.306,267.015 585.944,271.596 579.351,271.174 C580.901,262.036 580.808,252.679 582.9,243.625 C583.961,239.034 585.858,234.721 588.829,230.982 C590.583,228.776 592.589,226.866 595.452,226.157" fill="#E8B59F"/>
    <path d="M339.248,271.146 C332.43,271.627 328.968,266.732 325.918,262.062 C320.874,254.336 318.805,245.514 318.208,236.331 C317.925,231.971 319.396,228.554 323.062,226.127 C327.589,227.333 330.114,230.787 332.164,234.58 C334.876,239.598 336.56,244.936 337.015,250.71 C337.553,257.538 338.486,264.335 339.248,271.146" fill="#E8B59F"/>
    <path d="M443.613,406.796 C438.447,403.49 433.997,399.394 430.186,394.597 C429.691,393.973 429.107,393.374 428.793,392.662 C428.203,391.322 428.299,389.732 428.989,388.638 C429.467,387.88 430.783,388.807 431.669,389.118 C450.425,395.699 469.146,395.573 487.891,389.026 C488.752,388.725 489.826,387.356 490.949,388.755 C489.952,391.029 487.728,391.978 485.869,393.229 C475.295,400.343 463.759,405.038 451.066,406.735 C448.577,407.068 446.098,406.869 443.613,406.796" fill="#EEC2AC"/>
    <path d="M597.905,95.863 C585.35,76.771 568.766,62.806 546.806,55.667 C541.966,54.094 541.456,53.44 541.453,49.134 C545.657,48.183 549.791,49.056 553.792,50.05 C572.815,54.779 586.243,66.265 594.21,84.153 C595.827,87.784 597.534,91.382 598.564,95.245 C598.738,95.871 598.476,96.031 597.905,95.863" fill="#A77B74"/>
    <path d="M443.613,406.796 C446.457,405.278 449.616,406.162 452.62,405.686 C465.168,403.699 476.44,398.876 486.749,391.592 C488.129,390.617 489.548,389.699 490.949,388.755 C491.768,391.139 490.619,393.047 489.169,394.634 C481.745,402.761 473.076,409.027 462.583,412.768 C457.946,414.421 454.304,412.159 450.427,410.723 C447.982,409.819 445.666,408.485 443.613,406.796" fill="#F4D1BB"/>
    <path d="M495.857,458.924 C488.122,457.751 480.63,455.491 473.005,453.825 C471.872,453.577 470.753,452.992 469.549,453.535 C470.953,447.652 472.357,441.769 473.911,435.255 C481.433,443.367 488.645,451.146 495.857,458.924" fill="#D5DFE5"/>
    <path d="M450.074,452.365 C441.768,454.361 433.462,456.359 425.155,458.356 C431.587,451.051 438.019,443.747 444.871,435.965 C446.699,441.724 448.387,447.044 450.074,452.365" fill="#D5DFE5"/>
    <path d="M407.092,411 C398.576,413.051 390.06,415.102 381.545,417.155 C380.998,417.287 380.417,417.715 380.021,416.917 C390.109,410.753 399.705,403.785 410.393,398.326 C409.039,402.595 408.111,406.809 407.092,411" fill="#C1C2C2"/>
    <path d="M536.228,416.938 C527.959,414.948 519.688,412.958 511.418,410.968 C510.455,406.835 509.57,402.68 508.2,398.374 C517.877,404.1 527.086,410.468 536.228,416.938" fill="#C1C2C2"/>
    <path d="M171.199,464.456 C176.135,464.036 178.243,467.332 176.394,472.272 C174.674,469.685 173.047,467.237 171.199,464.456" fill="#F6F6F6"/>
    <path d="M137.196,498.891 C137.955,499.459 138.202,500.309 138.537,501.145 C135.959,501.107 135.959,501.107 137.196,498.891" fill="#CDCBCA"/>
    <path d="M640.548,499.097 C640.716,498.901 640.89,498.706 641.058,498.51 C641.91,499.117 641.532,500.083 641.748,500.876 C641.466,500.945 641.772,502.189 641.106,501.294 C640.692,500.732 640.722,499.84 640.548,499.097" fill="#BABBBB"/>
    <path d="M533.011,23.973 C533.24,23.742 533.468,23.511 533.696,23.28 C534.482,24.166 535.336,25.013 535.384,26.309 C534.437,25.689 533.616,24.941 533.011,23.973" fill="#8D645D"/>
    <path d="M325.532,200.258 C325.714,200.077 325.895,199.896 326.077,199.715 C326.972,200.508 326.531,201.793 327.169,202.679 C325.621,202.549 325.985,201.127 325.532,200.258" fill="#835C55"/>
    <path d="M597.905,95.863 C598.124,95.657 598.343,95.451 598.563,95.245 C599.285,96.143 599.712,97.143 599.615,98.321 C599.045,97.502 598.475,96.682 597.905,95.863" fill="#855E58"/>
    <path d="M426.875,211.239 C429.025,211.823 428.909,213.835 429.047,215.314 C429.799,223.398 429.121,231.237 424.209,238.152 C418.589,246.065 410.982,250.489 401.255,249.374 C391.486,248.253 384.404,242.818 380.402,233.588 C378.541,229.297 377.924,224.827 377.687,220.244 C379.364,217.979 379.319,215.227 379.882,212.636 C380.59,209.379 380.818,205.914 383.416,203.365 C389.955,198.745 397.216,196.261 405.232,196.559 C410.105,196.74 414.933,197.549 419.424,199.673 C423.302,202.627 424.613,207.239 426.875,211.239" fill="#FEFEFE"/>
    <path d="M540.807,220.237 C540.512,231.378 536.833,240.827 526.586,246.407 C514.687,252.886 500.653,248.811 493.609,237.212 C489.019,229.655 488.495,221.48 489.819,212.982 C490.012,211.741 491.119,211.92 491.62,211.256 C493.454,208.345 494.448,204.98 496.522,202.199 C497.233,201.245 497.992,200.341 499.023,199.705 C511.694,194.602 523.764,195.507 535.146,203.312 C537.585,205.939 537.926,209.36 538.615,212.634 C539.161,215.226 539.118,217.978 540.807,220.237" fill="#FEFEFE"/>
    <path d="M459.389,357.843 C450.706,357.785 443.929,354.447 438.001,349.22 C427.894,340.307 421.459,328.867 416.048,316.766 C414.749,313.859 413.591,310.885 412.494,307.895 C411.398,304.91 412.484,303.544 415.549,304.198 C431.366,307.573 447.409,308.189 463.49,308.003 C476.664,307.85 489.806,307.065 502.744,304.26 C506.154,303.52 507.407,304.726 506.252,307.733 C500.632,322.366 493.561,336.152 482.176,347.257 C475.701,353.573 468.191,357.816 459.389,357.843" fill="#2F201B"/>
    <path d="M393.373,154.859 C406.492,155.537 416.407,160.243 425.094,167.817 C426.833,169.334 428.436,170.99 429.575,173.015 C429.943,173.668 430.543,174.385 430.058,175.22 C429.553,176.09 428.62,175.927 427.892,175.769 C425.753,175.309 423.623,174.781 421.53,174.145 C416.947,172.753 412.381,171.313 407.672,170.381 C399.28,168.722 391.213,169.789 383.306,172.956 C379.716,174.394 376.175,176.169 372.213,176.406 C368.611,176.622 367.035,174.728 367.771,171.191 C368.767,166.405 371.773,163.02 375.571,160.225 C381.31,155.999 387.938,154.951 393.373,154.859" fill="#2F201B"/>
    <path d="M545.6,176.405 C543.596,176.302 540.941,175.327 538.432,174.154 C525.842,168.263 513.149,168.537 500.296,173.137 C497.766,174.043 495.163,174.759 492.563,175.446 C491.263,175.79 489.552,176.545 488.668,175.286 C487.75,173.978 489.064,172.666 489.92,171.592 C493.985,166.49 499.225,162.842 504.984,159.98 C515.383,154.814 526.213,152.903 537.37,157.207 C543.845,159.704 548.967,163.928 550.732,171.091 C551.617,174.679 550.032,176.518 545.6,176.405" fill="#2F201B"/>
    <path d="M546.694,250.777 C552.915,250.433 558.703,251.164 564.338,253.068 C565.966,253.618 567.445,254.402 568.825,255.413 C571.869,257.641 571.934,260.769 568.953,263.027 C565.151,265.907 560.574,266.713 556.079,267.419 C548.351,268.633 540.616,268.3 533.012,266.311 C531.19,265.834 529.334,265.28 527.684,264.403 C525.637,263.315 523.216,262.359 523.411,259.269 C523.6,256.292 525.739,254.902 528.022,253.941 C534.066,251.395 540.399,250.228 546.694,250.777" fill="#F7BAB3"/>
    <path d="M371.14,268.135 C364.222,267.556 357.223,267.363 350.907,263.81 C349.03,262.755 347.687,261.511 347.626,259.222 C347.564,256.94 349.197,255.896 350.791,254.872 C354.661,252.381 359.118,251.224 363.525,250.93 C371.962,250.366 380.49,250.093 388.657,253.124 C389.864,253.572 391.063,254.117 392.151,254.801 C396.857,257.758 396.725,261.302 391.772,264.029 C388.051,266.077 383.918,267.021 379.772,267.421 C376.916,267.697 374.076,268.573 371.14,268.135" fill="#F7BAB3"/>
    <path d="M498.989,200.348 C496.731,202.67 495.248,205.474 494.037,208.432 C493.535,209.659 493.042,210.839 491.62,211.255 C488.54,210.782 487.636,209.702 488.302,207.293 C493.019,190.215 514.049,181.064 529.601,189.439 C537.834,193.873 541.368,201.568 543.196,210.253 C543.625,212.292 543.721,214.403 543.94,216.484 C544.182,218.792 543.191,220.103 540.808,220.237 C539.008,219.734 538.461,218.507 538.298,216.694 C537.901,212.259 537.323,207.829 534.994,203.875 C532.855,201.919 531.782,199.105 529.56,197.204 C523.38,191.915 512.732,191.194 505.498,195.64 C503.213,197.045 501.109,198.709 498.989,200.348" fill="#2F201B"/>
    <path d="M426.875,211.239 C425.437,210.829 425.008,209.59 424.487,208.396 C423.217,205.479 421.829,202.627 419.524,200.344 C415.612,197.283 411.727,194.308 406.653,193.185 C398.294,191.335 390.09,194.437 385.421,201.611 C384.877,202.448 384.384,203.307 383.542,203.89 C381.187,207.841 380.665,212.293 380.211,216.719 C380.024,218.535 379.494,219.755 377.687,220.244 C375.322,220.069 374.4,218.754 374.547,216.446 C374.963,209.88 376.607,203.707 379.964,197.985 C388.346,183.703 409.115,183.448 419.708,192.32 C424.324,196.186 427.729,200.894 429.89,206.497 C431.081,209.582 430.292,210.77 426.875,211.239" fill="#2F201B"/>
    <path d="M459.091,275.926 C462.841,275.747 466.194,276.076 469.223,277.804 C471.959,279.364 472.059,281.599 469.275,282.896 C462.624,285.995 455.821,285.797 449.072,283.081 C447.916,282.615 447.131,281.721 447.183,280.315 C447.235,278.911 448.128,278.169 449.255,277.655 C452.485,276.182 455.884,275.63 459.091,275.926" fill="#D6A393"/>
    <path d="M418.589,206.873 C415.933,207.536 414.194,208.774 414.236,211.592 C414.264,213.494 415.09,214.858 416.808,215.605 C419.153,216.624 420.521,215.041 421.873,213.506 C425.327,220.736 422.709,234.321 413.408,239.025 C407.701,241.912 401.113,240.689 396.459,235.844 C389.008,228.085 388.888,213.901 396.206,206.002 C402.721,198.97 412.058,199.204 418.589,206.873" fill="#2F201B"/>
    <path d="M383.542,203.89 C388.013,192.253 403.579,188.105 414.559,195.667 C416.436,196.96 418.322,198.305 419.524,200.344 C414.535,198.663 409.47,197.264 404.159,197.36 C397.168,197.488 390.652,199.256 384.922,203.456 C384.554,203.726 384.006,203.75 383.542,203.89" fill="#E4EBF6"/>
    <path d="M522.913,206.838 C520.477,207.523 518.747,208.924 518.801,211.591 C518.835,213.241 519.543,214.671 521.161,215.479 C523.378,216.587 524.923,215.39 526.359,213.853 C530.228,222.505 525.958,234.857 517.755,239.09 C512.304,241.903 505.566,240.655 501.013,235.989 C493.147,227.93 493.306,213.188 501.342,205.273 C507.787,198.927 517.077,199.537 522.913,206.838" fill="#2F201B"/>
    <path d="M498.989,200.348 C508.178,189.345 524.867,189.007 532.774,199.682 C533.718,200.957 534.651,202.267 534.994,203.875 C532.258,202.496 529.586,200.966 526.772,199.766 C517.449,195.79 508.19,197.212 498.989,200.348" fill="#E4EBF6"/>
    <path d="M490.573,329.383 C485.934,337.597 480.004,344.693 471.914,349.658 C462.968,355.148 453.907,354.877 445.143,349.098 C438.001,344.387 432.647,338 428.476,330.583 C429.182,329.368 430.462,328.949 431.62,328.422 C439.121,325.004 446.969,323.105 455.213,322.367 C466.501,321.358 477.204,323.318 487.602,327.523 C488.692,327.964 489.914,328.234 490.573,329.383" fill="#EE8E96"/>
    <path d="M490.573,329.383 C485.38,327.748 480.385,325.544 475.006,324.437 C460.054,321.364 445.672,323.024 431.778,329.264 C430.698,329.75 429.577,330.145 428.476,330.582 C423.925,324.101 420.793,316.918 417.695,309.242 C445.513,313.548 472.981,313.438 501.002,309.278 C497.801,316.618 494.906,323.363 490.573,329.383" fill="#DE7061"/>
  </g>
</svg>
